<svg id="_0340_web_developer" data-name="0340_web_developer" xmlns="http://www.w3.org/2000/svg" xmlns:xlink="http://www.w3.org/1999/xlink" viewBox="0 0 500 500" data-imageid="coding-5-96" imageName="Coding 5" class="illustrations_image" style="width: 151px;"><defs><style>.cls-1_coding-5-96{fill:#e75d48;}.cls-10_coding-5-96,.cls-2_coding-5-96,.cls-6_coding-5-96,.cls-9_coding-5-96{opacity:0.32;}.cls-2_coding-5-96{fill:url(#linear-gradient);}.cls-3_coding-5-96{fill:#502019;}.cls-4_coding-5-96{fill:#ff8f6f;}.cls-5_coding-5-96{fill:#00a99d;}.cls-6_coding-5-96{fill:url(#linear-gradient-2-coding-5-96);}.cls-7_coding-5-96{fill:#68e1fd;}.cls-14_coding-5-96,.cls-8_coding-5-96{fill:#200a52;}.cls-8_coding-5-96{opacity:0.21;}.cls-9_coding-5-96{fill:url(#linear-gradient-3-coding-5-96);}.cls-10_coding-5-96{fill:url(#linear-gradient-4-coding-5-96);}.cls-11_coding-5-96,.cls-13_coding-5-96{fill:#34323d;}.cls-12_coding-5-96{fill:#a5dd73;}.cls-13_coding-5-96{opacity:0.76;}.cls-15_coding-5-96{fill:#29abe2;}.cls-16_coding-5-96{fill:#fff;}</style><linearGradient id="linear-gradient-coding-5-96" x1="52.65" y1="285.58" x2="82.61" y2="261.43" gradientUnits="userSpaceOnUse"><stop offset="0" stop-color="#e75d48"/><stop offset="1" stop-color="#502019"/></linearGradient><linearGradient id="linear-gradient-2-coding-5-96" x1="391.19" y1="311.9" x2="418.37" y2="286.81" xlink:href="#linear-gradient-coding-5-96"/><linearGradient id="linear-gradient-3-coding-5-96" x1="170.48" y1="346.42" x2="203.24" y2="316.18" xlink:href="#linear-gradient-coding-5-96"/><linearGradient id="linear-gradient-4-coding-5-96" x1="237.19" y1="314.08" x2="273.23" y2="266.03" xlink:href="#linear-gradient-coding-5-96"/></defs><path id="field_coding-5-96" class="cls-1_coding-5-96" d="M243,417.39,23.67,287.75c-7-3.93-13-10.36-6.17-14.58L237.65,146.29c3.3-2,8.32-3.39,11.68-1.44L479.58,278.49c7,4.05,8.24,15.38,1.25,19.44L271.94,417.18A29.2,29.2,0,0,1,243,417.39Z"/><g id="plant_coding-5-96"><path class="cls-2_coding-5-96" d="M64.69,293.66c10.46-7,21.1-13.68,31.69-20.47l-15-11L23.13,286.52c7,3.68,16.57,10.59,26.54,17.62C54.63,300.59,59.6,297,64.69,293.66Z"/><path class="cls-3_coding-5-96" d="M102.08,234.29a2.62,2.62,0,0,0-.47-1,6,6,0,0,0-1.45-1.26c-7.4-5-17.63-6.38-25.44-1.49-1.79,1.12-4.44,3.65-3.39,6,.61,1.39,2.47,2.2,3.76,2.77a56.9,56.9,0,0,0,13.36,3.48c1.66.28,3.33.56,5,.71a6.89,6.89,0,0,0,6.09-2.61C100.74,239.45,102.61,236.46,102.08,234.29Z"/><path class="cls-4_coding-5-96" d="M71.14,235.49s6.74,6.1,18.39,5.21,12.55-6.41,12.55-6.41-3,38.61-4.61,39.27-7.54,3.54-10.41,3.76-12-3.43-12.18-4.43S71.14,235.49,71.14,235.49Z"/><path class="cls-5_coding-5-96" d="M73.26,179.22c-.36-.73-1.46-.09-1.1.64,8,16.07,9.53,34.16,11,51.73.06.8,1.34.81,1.27,0C82.94,213.78,81.34,195.5,73.26,179.22Z"/><path class="cls-5_coding-5-96" d="M72.24,179.37s2.23,8.34-.07,12.51-4.2,5-1.45,10.21S80.81,208,81.3,211.94,77.78,186.45,72.24,179.37Z"/><path class="cls-5_coding-5-96" d="M97.74,194.43a104.94,104.94,0,0,0-10.12,41c0,1,1.52,1,1.56,0a102.88,102.88,0,0,1,9.9-40.26C99.5,194.31,98.16,193.54,97.74,194.43Z"/><path class="cls-5_coding-5-96" d="M98.83,198.5c0-.84-.19-2.48-.1-4-.29.2-.59.38-.89.56-3,7.36-7.55,24.65-8.91,30,1.84-4,9.39-4.51,11.6-10.21a10.43,10.43,0,0,0,.13-7.52A27.72,27.72,0,0,1,98.83,198.5Z"/></g><g id="coffee_coding-5-96"><path class="cls-6_coding-5-96" d="M405.5,279.23c-16.73,9.76-28.69,16.31-54.42,31,19.48,11.84,36.51,20.53,38.7,21.82l55.9-31.75C441.18,297.93,426.33,289.53,405.5,279.23Z"/><ellipse class="cls-7_coding-5-96 targetColor" cx="427.63" cy="292.12" rx="23.95" ry="11.84" style="fill: rgb(204, 215, 255);"/><path class="cls-7_coding-5-96 targetColor" d="M451.58,260.58v32.2s-17.82,16.5-47.89.27V260.58" style="fill: rgb(204, 215, 255);"/><path class="cls-8_coding-5-96" d="M432.9,291.81c-6.61,5.14-14.6,7.5-22.78,8.36,4.36,2.33,10.59,3.79,17.51,3.79,12.73,0,23.11-4.92,23.88-11.11l.07-.07v-32.2h-.44C447.06,272.06,442.85,284.07,432.9,291.81Z"/><path class="cls-7_coding-5-96 targetColor" d="M407.27,272.08s-4-6.07-7.7-2.57-.47,15.64,10.5,16.81v4.9S396.3,289.35,394.43,277s7-14.27,11.44-10.87" style="fill: rgb(204, 215, 255);"/><ellipse class="cls-3_coding-5-96" cx="427.63" cy="260.72" rx="23.95" ry="11.84"/></g><g id="web-dev_coding-5-96"><path class="cls-9_coding-5-96" d="M187.73,307c-20.16,11.76-34.57,19.66-65.59,37.36,23.48,14.26,44,24.74,46.65,26.3l67.36-38.27C230.74,329.58,212.84,319.45,187.73,307Z"/><path class="cls-10_coding-5-96" d="M268.56,342.2c20.49-11,69-35.44,89.35-46.74L240.82,222.2l-84.49,57.36C177.78,290.79,238.89,323.84,268.56,342.2Z"/><path class="cls-11_coding-5-96" d="M169.74,218.65c.09,27.12.24,51.54.24,51.54s.57,2.21,4.65.4V217.07C173,217.61,171.37,218.13,169.74,218.65Z"/><path class="cls-11_coding-5-96" d="M283.15,284.62c.1,27.12.24,51.54.24,51.54s.58,2.21,4.66.4V283C286.42,283.58,284.79,284.1,283.15,284.62Z"/><path class="cls-11_coding-5-96" d="M353,243.52c.09,27.12.23,51.54.23,51.54s.58,2.21,4.66.4V241.94C356.28,242.48,354.65,243,353,243.52Z"/><polyline class="cls-12_coding-5-96" points="168.79 217.07 168.79 221.68 285.82 289.4 357.8 242.13 357.91 236.97"/><polyline class="cls-13_coding-5-96" points="168.79 217.07 168.79 221.68 285.82 289.4 357.8 242.13 357.91 236.97"/><polygon class="cls-12_coding-5-96" points="168.79 217.07 244.09 174.11 357.91 236.97 285.41 284.76 168.79 217.07"/><path class="cls-11_coding-5-96" d="M273.28,194.71l-15.86,7.64a3.65,3.65,0,0,0-.25,6.44l37.59,21.93a3.64,3.64,0,0,0,4.91-1.18l9.14-14.21"/><path class="cls-7_coding-5-96 targetColor" d="M353,154.06,223.46,79.45a4.22,4.22,0,0,0-6.32,3.65v79.27a3.24,3.24,0,0,0,1.63,2.81L356.6,244.74a1.57,1.57,0,0,0,2.35-1.35v-79A12,12,0,0,0,353,154.06Z" style="fill: rgb(204, 215, 255);"/><path class="cls-14_coding-5-96" d="M225.71,86.47l122.66,70.58a8.61,8.61,0,0,1,4.31,7.45v56.84A3.1,3.1,0,0,1,348,224l-125.1-71.78a3.07,3.07,0,0,1-1.53-2.66V89A2.88,2.88,0,0,1,225.71,86.47Z"/><ellipse class="cls-3_coding-5-96" cx="278.63" cy="193.4" rx="1.33" ry="0.01" transform="translate(-31.55 56.2) rotate(-10.9)"/><ellipse class="cls-14_coding-5-96" cx="343.37" cy="158.79" rx="1.34" ry="1.45"/><ellipse class="cls-14_coding-5-96" cx="339.11" cy="156.67" rx="1.34" ry="1.45"/><rect class="cls-5_coding-5-96" x="263.89" y="80.26" width="4" height="86.52" transform="translate(27.13 293.67) rotate(-60.39)"/><rect class="cls-1_coding-5-96" x="232.64" y="109.79" width="4" height="14.01" transform="translate(17.2 263.12) rotate(-60.4)"/><rect class="cls-15_coding-5-96" x="276.18" y="102.56" width="4" height="77.26" transform="translate(20.43 316.94) rotate(-61.2)"/><rect class="cls-12_coding-5-96" x="239.27" y="115.85" width="4" height="29.69" transform="translate(10.31 278.84) rotate(-61.12)"/><rect class="cls-4_coding-5-96" x="285.09" y="123.5" width="4" height="64.65" transform="translate(14.3 335.52) rotate(-61.87)"/><path class="cls-14_coding-5-96" d="M229.36,202.44,202,218.06a1.87,1.87,0,0,0,0,3.25L277.93,265a6.05,6.05,0,0,0,6.05,0l25.57-14.76a2,2,0,0,0,0-3.39l-76.8-44.37A3.42,3.42,0,0,0,229.36,202.44Z"/><path class="cls-16_coding-5-96" d="M270.66,227.34,262.85,232l5.8,3.36,7.82-4.6Z"/><path class="cls-16_coding-5-96" d="M262.11,222.37l-7.8,4.63,7.33,4.25c1.28-.74,6-3.53,7.83-4.6Z"/><path class="cls-16_coding-5-96" d="M231.06,204.34l-7.93,4.55,7.05,4.1,7.83-4.61Z"/><path class="cls-16_coding-5-96" d="M247.75,214l-7.8,4.62,5.79,3.36c1.37-.79,6.07-3.57,7.83-4.61Z"/><path class="cls-16_coding-5-96" d="M239.2,209.07l-7.8,4.63,7.33,4.25c.86-.49,5.77-3.39,7.83-4.6Z"/><path class="cls-16_coding-5-96" d="M277.66,231.41l-7.8,4.62,5.54,3.22c1.67-1,6.35-3.74,7.83-4.61Z"/><path class="cls-16_coding-5-96" d="M254.76,218.11l-7.8,4.62,6.13,3.56,7.83-4.61Z"/><path class="cls-16_coding-5-96" d="M284.42,235.33l-7.8,4.62,7.33,4.26c1.53-.89,6.21-3.65,7.83-4.61Z"/><polygon class="cls-16_coding-5-96" points="292.97 240.29 285.17 244.92 298.32 252.56 306.25 248.01 292.97 240.29"/><path class="cls-16_coding-5-96" d="M222.12,210.24l-7.92,4.55,10.24,6c1.34-.77,6.05-3.55,7.83-4.6Z"/><path class="cls-16_coding-5-96" d="M242,221.79l-7.8,4.63,5.79,3.36c1.55-.9,6.23-3.67,7.83-4.61Z"/><path class="cls-16_coding-5-96" d="M256.36,230.13l-7.8,4.62L255.9,239c1.47-.86,6.16-3.62,7.82-4.61Z"/><path class="cls-16_coding-5-96" d="M249,225.86l-7.8,4.62,6.13,3.57,7.83-4.61Z"/><path class="cls-16_coding-5-96" d="M264.91,235.09l-7.8,4.63,5.8,3.36,7.82-4.61Z"/><path class="cls-16_coding-5-96" d="M271.92,239.16l-7.8,4.63,5.54,3.21c1.82-1.06,6.54-3.85,7.83-4.61Z"/><path class="cls-16_coding-5-96" d="M233.46,216.83l-7.8,4.62,7.33,4.26c1.16-.67,5.93-3.49,7.83-4.61Z"/><path class="cls-16_coding-5-96" d="M278.68,243.08l-7.8,4.63,7.33,4.26,7.83-4.61Z"/><polygon class="cls-16_coding-5-96" points="279.43 252.67 289.39 258.46 297.31 253.91 287.23 248.05 279.43 252.67"/><polygon class="cls-16_coding-5-96" points="273.59 251.88 267.79 255.33 274.51 259.22 280.41 255.84 273.59 251.88"/><polygon class="cls-16_coding-5-96" points="275.91 260.03 281.63 263.35 287.53 259.98 281.7 256.59 275.91 260.03"/><polygon class="cls-16_coding-5-96" points="212.34 216.31 206.27 219.68 213.16 223.67 219.12 220.25 212.34 216.31"/><polygon class="cls-16_coding-5-96" points="220.41 221 214.55 224.48 221.91 228.74 227.86 225.32 220.41 221"/><polygon class="cls-16_coding-5-96" points="229.16 226.07 223.31 229.55 266.39 254.51 272.29 251.12 229.16 226.07"/><path class="cls-4_coding-5-96" d="M202.28,260.72c-5.89-4.12-12.84-6.37-20.34-4.72-8,1.75-14.9,6.77-23,8-1.29.2-6.43-.13-7.21.61-22.65,21.44,40.66,19.14,40.66,19.14,6.15-5,11.93-10,18-15.07C208.54,264.55,205.44,262.93,202.28,260.72Z"/><path class="cls-4_coding-5-96" d="M172.48,291.79l-2.25,64.68c-.09,2.45,3.73,2.45,3.81,0l2.25-64.68C176.38,289.34,172.56,289.34,172.48,291.79Z"/><path class="cls-4_coding-5-96" d="M220,326.4q-17.29-16.93-33.05-35.34c-1.6-1.86-4.28.84-2.7,2.7q15.73,18.39,33,35.33C219,330.81,221.71,328.11,220,326.4Z"/><path class="cls-4_coding-5-96" d="M159.26,285.81Q145.84,311.16,134,337.28c-1,2.21,2.28,4.15,3.29,1.92q11.87-26.11,25.29-51.47C163.7,285.57,160.41,283.64,159.26,285.81Z"/><path class="cls-4_coding-5-96" d="M203.85,217.49c.77-.2,7.3-1.87,8.92-2.41s6.56-4.38,9.25-3.77,8.13,4.14,8.38,5.34-1.22,2.65-1.85,3.17-4.5-.92-6-1.16-3.95,3.37-5.39,4-10.73,2.3-10.73,2.3"/><path class="cls-4_coding-5-96" d="M221.39,233.27c.77-.19,7.31-1.87,8.92-2.4s6.56-4.38,9.25-3.78,8.13,4.14,8.38,5.35-1.22,2.64-1.84,3.16-4.51-.91-6-1.15-3.95,3.36-5.39,4-10.73,2.3-10.73,2.3"/><path class="cls-3_coding-5-96" d="M218.85,315.46c1.19-1.22,2-2.56,1.55-3.88-.73-2.39-4-3.35-6.16-3.23-2.37.13-4.51,1.24-6.74,1.91a16.67,16.67,0,0,1-7.3.9,1.61,1.61,0,0,1-1-.57,4,4,0,0,1-3-2.69l-7.33-2.63s-1.87,15.48-1.8,16.57c.55,8.35,13,3.59,13,3.59s.44-3.77.56-4.28,4.91,1,6.88.68a8.9,8.9,0,0,0,2.56-1.19c1.47-.81,2.92-1.68,4.35-2.56S217.37,316.35,218.85,315.46Z"/><path class="cls-11_coding-5-96" d="M191.54,258.33c-2.75.28-5.49.63-8.23,1Q185,285.71,187.1,312c7.12,2.91,10,1.57,14.43-2.95.84-16.75,2.3-34.3,2.25-51.22C199.7,258,195.62,258.22,191.54,258.33Z"/><path class="cls-11_coding-5-96" d="M161.92,253.51s-1.18,19.24,8.48,23.53,29.49,2.14,39.24-3.58a105.21,105.21,0,0,1,15.82-7.9s2.5-8.41-3.58-12.05-19.52-8.13-31.45,0"/><path class="cls-11_coding-5-96" d="M211.18,224.71c1-3.93.44-10.42.44-10.42s-12.07,2.06-17.16,1.27-13.4-11.42-13.4-11.42l1.14,21.1C191.84,227.26,201.82,227.69,211.18,224.71Z"/><path class="cls-3_coding-5-96" d="M241.18,327.51c1.18-1.22,1.95-2.56,1.55-3.89-.73-2.38-4-3.34-6.17-3.22-2.37.13-4.5,1.24-6.73,1.91a16.71,16.71,0,0,1-7.31.9,1.59,1.59,0,0,1-1-.57,4,4,0,0,1-3-2.7l-7.33-2.62s-1.87,15.48-1.8,16.57c.54,8.35,13,3.59,13,3.59s.44-3.77.56-4.28,4.9,1,6.87.67a8.5,8.5,0,0,0,2.56-1.18c1.48-.82,2.92-1.69,4.36-2.56S239.7,328.4,241.18,327.51Z"/><path class="cls-11_coding-5-96" d="M213,254c-2.53-1.19-5.17-1.07-8.19-1,.42,6.19.19,8.41.57,14.6,0,.55.07,1.1.1,1.65,1.17,18.31,2.52,36.61,4,54.9,7.11,2.91,10,1.56,14.42-2.95,1-19.49,2.82-40.07,2.12-59.47C221.84,257.58,218.19,256.43,213,254Z"/><path class="cls-5_coding-5-96" d="M161.75,249.53c0,.48.09,2.06.17,4,4,5.28,8.89,8.36,16.57,8.14,6.22-.19,11.4-2.9,16.27-6.26-.6-11.26-2.42-30.49-5.27-43.9-.24-1.13-3.18-1.89-4-2.36-2-1.1-.84-3-2.83-4.2a68.26,68.26,0,0,0-9-4.37h-.08c-4.95-.07-13.48,3.74-14,10.37-.77,10.2.34,16.33,1.14,26.5C161,241.51,161.4,245.55,161.75,249.53Z"/><path class="cls-4_coding-5-96" d="M179,181.26c.65.17,6.15,12.81,4,20.49s-15.19-.22-18.47-6.07S166.64,178.07,179,181.26Z"/><path class="cls-11_coding-5-96" d="M178.8,183s0,4.17-3.64,5.52-6.68,2.25-6.49,3.94,6.6-.24,6.62,3.63a28.74,28.74,0,0,1-1,7.7c-.4,1.9-11.36-3.91-15-13.81s5.43-12.52,5.87-12.59,1.26-2.76,5.69-3.72,5.68.75,5.68.75,2.93-2.1,6.48.7c4.08,3.25,3,9.17-1.58,11.58Z"/><path class="cls-5_coding-5-96" d="M229.15,230.13c-5.68,1.18-17.23,3.06-21.31,1.28-3.16-1.38-13.73-24-25.22-26.48l-1.56,17.3s16.25,20.6,23.75,22.72c5.45,1.55,20.14-.51,26.59-2.76A24.53,24.53,0,0,0,229.15,230.13Z"/><path class="cls-11_coding-5-96" d="M193.18,235.47c-.84-1.07-10.24-11.72-10.24-11.72l11.3,23.16Z"/><path class="cls-7_coding-5-96 targetColor" d="M209.51,268.26c-3.68,4.83-8.41,8.71-14.29,10.49-8.07,2.45-19.79,1.3-24-7.13-7.72-15.34-.47-34.54-8.62-49.45-2-3.71-5.36-6.87-9.44-7.76-5.28-1.16-8.9,2.81-10.81,7.47-3.43,8.37-3.31,18.79-3.14,27.69a151.87,151.87,0,0,0,1.56,21.52S145.68,301,184.14,293c6.55-1.37,13.16-3.42,18.89-7a26.09,26.09,0,0,0,7.71-6.78C213.09,275.77,211.54,271.7,209.51,268.26Z" style="fill: rgb(204, 215, 255);"/></g><g id="code_coding-5-96"><path class="cls-12_coding-5-96" d="M398.25,149.57V204.3a6.1,6.1,0,0,1-9.22,5.24l-52-31a6.08,6.08,0,0,1-3-5.24V119.53a6.09,6.09,0,0,1,9.14-5.27l52,30A6.11,6.11,0,0,1,398.25,149.57Z"/><polygon class="cls-11_coding-5-96" points="357.74 178.17 341.48 155.34 359.93 141.78 362.3 145.01 347.03 156.23 361 175.85 357.74 178.17"/><polygon class="cls-11_coding-5-96" points="371.84 186.53 370.14 182.91 385.71 175.65 374.25 153.25 377.81 151.43 391.16 177.52 371.84 186.53"/></g></svg>