<svg version="1.1" id="Layer_1" xmlns="http://www.w3.org/2000/svg" xmlns:xlink="http://www.w3.org/1999/xlink" x="0px" y="0px" viewBox="0 0 500 500" style="width: 151px;" xml:space="preserve" data-imageid="marketing-50" imageName="Marketing" class="illustrations_image">
<style type="text/css">
	.st0_marketing-50{fill:#D1D3D4;}
	.st1_marketing-50{fill:#FFFFFF;}
	.st2_marketing-50{fill:#231F20;}
	.st3_marketing-50{fill:#68E1FD;}
</style>
<path id="Floor_marketing-50" class="st0_marketing-50" d="M437.5,386.4H62.9c-0.4,0-0.6-0.3-0.7-0.6c0-0.4,0.3-0.7,0.7-0.7h374.6c0.4,0,0.7,0.3,0.6,0.7&#xA;&#9;C438.1,386.1,437.8,386.4,437.5,386.4z"/>
<g id="screen_marketing-50">
	<path class="st1_marketing-50" d="M64.3,117.7h360.9c9,0,16.4,7.3,16.4,16.3v183.7c0,9-7.3,16.4-16.4,16.4H64.3c-9,0-16.4-7.3-16.4-16.4V134.1&#xA;&#9;&#9;C48,125,55.3,117.7,64.3,117.7z"/>
	<path class="st2_marketing-50" d="M425.2,334.8H64.3c-9.4,0-17-7.6-17-17l0,0V134.1c0-9.4,7.6-17,17-17h360.9c9.4,0,17,7.6,17,17v183.7&#xA;&#9;&#9;C442.2,327.2,434.6,334.8,425.2,334.8C425.2,334.8,425.2,334.8,425.2,334.8z M64.3,118.4c-8.7,0-15.7,7-15.7,15.7v183.7&#xA;&#9;&#9;c0,8.7,7,15.7,15.7,15.7h360.9c8.7,0,15.7-7,15.7-15.7V134.1c0-8.7-7-15.7-15.7-15.7H64.3z"/>
	<rect x="48" y="142.3" class="st1_marketing-50" width="393.6" height="167.2"/>
	<path class="st2_marketing-50" d="M441.5,310.2H48c-0.4,0-0.7-0.3-0.7-0.7l0,0V142.3c0-0.4,0.3-0.7,0.7-0.7h393.5c0.4,0,0.7,0.3,0.7,0.7v0v167.2&#xA;&#9;&#9;C442.2,309.9,441.9,310.2,441.5,310.2z M48.6,308.8h392.2V143H48.7L48.6,308.8z"/>
	<polygon class="st1_marketing-50" points="313.6,381.6 176,381.6 191.5,334.1 298,334.1 &#9;"/>
	<path class="st2_marketing-50" d="M313.6,382.2H176c-0.2,0-0.4-0.1-0.5-0.3c-0.1-0.2-0.2-0.4-0.1-0.6l15.6-47.4c0.1-0.3,0.3-0.5,0.6-0.5H298&#xA;&#9;&#9;c0.3,0,0.5,0.2,0.6,0.5l15.6,47.4c0.1,0.4-0.1,0.7-0.4,0.8C313.7,382.2,313.6,382.2,313.6,382.2L313.6,382.2z M176.9,380.9h135.8&#xA;&#9;&#9;l-15.1-46.1H192L176.9,380.9z"/>
	<path class="st1_marketing-50" d="M164.6,381.6h160.3c3.7,0,6.7,3,6.7,6.7v0c0,3.7-3,6.7-6.7,6.7H164.6c-3.7,0-6.7-3-6.7-6.7v0&#xA;&#9;&#9;C157.9,384.5,160.9,381.6,164.6,381.6z"/>
	<path class="st2_marketing-50" d="M324.9,395.6H164.6c-4.1-0.1-7.2-3.6-7.1-7.6c0.1-3.8,3.2-6.9,7.1-7.1h160.4c4.1-0.1,7.5,3,7.6,7.1&#xA;&#9;&#9;s-3,7.5-7.1,7.6C325.3,395.6,325.1,395.6,324.9,395.6z M164.6,382.2c-3.3,0-6,2.7-6,6s2.7,6,6,6h160.4c3.3,0,6-2.7,6-6s-2.7-6-6-6&#xA;&#9;&#9;H164.6z"/>
	<path class="st2_marketing-50" d="M180.6,369c2.2-1.2,121.4-23,121.4-23l-3.9-11.9H191.5L180.6,369z"/>
	<path class="st2_marketing-50" d="M180.6,369.6c-0.2,0-0.3-0.1-0.4-0.2c-0.2-0.2-0.3-0.4-0.2-0.7l11-34.9c0.1-0.3,0.3-0.5,0.6-0.5H298&#xA;&#9;&#9;c0.3,0,0.5,0.2,0.6,0.5l3.9,11.9c0.1,0.3-0.1,0.7-0.4,0.8c0,0-0.1,0-0.1,0c-40.9,7.5-118.8,21.9-121.2,22.9&#xA;&#9;&#9;C180.8,369.6,180.7,369.6,180.6,369.6z M192,334.8l-10.5,33.3c12.2-2.9,105.2-19.9,119.5-22.5l-3.5-10.8H192z"/>
</g>
<g id="Character_marketing-50">
	<path class="st3_marketing-50 targetColor" d="M301.9,175.1c0,0-77.6-19-101.7,0s-48.6,40.2-48.6,40.2l19.2,37.6l29.7-24.5l-13,64.9l102.2,1.5l5.8-58.9&#xA;&#9;&#9;c0,0,10.5,35,21.9,36.5s31-14,20.2-39S301.9,175.1,301.9,175.1z" style="fill: rgb(59, 255, 131);"/>
	<path class="st1_marketing-50" d="M362.9,217.1c1,2,1.5,4.3,1.4,6.5c-0.3,2.1-1,4.1-1.9,6c-5,10.9-10,21.9-15.6,32.5c-3.3,6.3-9,13.5-16.7,14.2&#xA;&#9;&#9;c-6.7,0.6-18-5.7-19.5-12.5c-2.1-9.1,9.9-19.9,14.9-26.5c6.8-8.9,13.5-18.5,21.3-26.5c4.3-4.4,5.7-4.8,10.5-0.7&#xA;&#9;&#9;C359.5,212.1,361.4,214.4,362.9,217.1z"/>
	<path class="st2_marketing-50" d="M328.9,277.1c-8.2,0-17.7-7.3-19-13.1c-1.7-7.5,5.5-15.8,11.2-22.5c1.4-1.7,2.8-3.2,3.8-4.6&#xA;&#9;&#9;c1.3-1.8,2.7-3.6,4-5.4c5.4-7.2,11-14.7,17.3-21.2c4.5-4.6,6.3-5.2,11.4-0.7c2.4,1.9,4.3,4.3,5.8,7.1c1.1,2.1,1.6,4.5,1.4,6.9&#xA;&#9;&#9;c-0.3,2.2-1,4.3-2,6.3c-4.9,10.8-10,21.9-15.6,32.6c-2.7,5.1-8.5,13.8-17.2,14.6C329.7,277.1,329.3,277.1,328.9,277.1z M352.1,208&#xA;&#9;&#9;c-1.4,0-2.7,1.1-4.9,3.3c-6.2,6.4-11.8,13.8-17.2,21.1c-1.4,1.8-2.7,3.6-4,5.4c-1.1,1.4-2.4,3-3.9,4.7&#xA;&#9;&#9;c-5.6,6.4-12.5,14.4-10.9,21.3c1.4,6.4,12.4,12.5,18.8,12c8.1-0.8,13.6-9,16.2-13.9c5.6-10.6,10.7-21.7,15.6-32.5&#xA;&#9;&#9;c1-1.8,1.6-3.8,1.9-5.8c0.1-2.1-0.3-4.3-1.3-6.2l0,0c-1.4-2.5-3.2-4.8-5.5-6.6C354.7,208.9,353.3,208,352.1,208z"/>
	<path class="st1_marketing-50" d="M326.1,197.4l20.1,39.1c1.8,3.5,5.6,4.9,8.7,3.1l9.6-5.3c3.3-1.8,4.7-6.5,3-10.4l-13-29.9l7-8.7&#xA;&#9;&#9;C361.6,185.4,328.8,195.4,326.1,197.4z"/>
	<path class="st2_marketing-50" d="M352.2,241.1c-0.7,0-1.3-0.1-1.9-0.3c-2-0.7-3.6-2.1-4.5-4l-20.2-39.1c-0.2-0.3-0.1-0.7,0.2-0.9&#xA;&#9;&#9;c2.7-1.9,32.3-11,35.7-12c0.3-0.1,0.6,0,0.8,0.3c0.2,0.2,0.2,0.6,0,0.8l-6.7,8.4l12.9,29.6c1.8,4.2,0.3,9.2-3.3,11.2l-9.6,5.3&#xA;&#9;&#9;C354.4,240.8,353.3,241.1,352.2,241.1z M327,197.6l19.9,38.6c0.8,1.6,2.1,2.7,3.8,3.3c1.4,0.4,2.8,0.3,4-0.4l9.6-5.3&#xA;&#9;&#9;c3-1.7,4.3-6,2.7-9.5l-13-29.9c-0.1-0.2-0.1-0.5,0.1-0.7l5.6-7C350,189.7,330.8,195.8,327,197.6z"/>
	<path class="st2_marketing-50" d="M312.2,161.5l-9.2,2.9c0,0-3.8,25.4,13.5,34.5l8.9-3.1L312.2,161.5z"/>
	<path class="st2_marketing-50" d="M316.5,199.6c-0.1,0-0.2,0-0.3-0.1c-17.5-9.2-13.8-34.9-13.8-35.2c0-0.2,0.2-0.4,0.5-0.5l9.2-2.9&#xA;&#9;&#9;c0.3-0.1,0.7,0.1,0.8,0.4l13.2,34.3c0.1,0.2,0.1,0.3,0,0.5c-0.1,0.2-0.2,0.3-0.4,0.3l-8.9,3.1C316.7,199.6,316.6,199.6,316.5,199.6&#xA;&#9;&#9;z M303.6,165c-0.4,3.2-2.3,25,12.9,33.3l8-2.8l-12.7-33.1L303.6,165z"/>
	<path class="st1_marketing-50" d="M414.2,107.3c0,0-13.3,18.4-40.6,30.7c-23.7,10.6-63.2,21-63.2,21s-8.8,25.5,12.7,40.4c0,0,36.5-9.9,53.2-12.7&#xA;&#9;&#9;c21.5-3.7,64.2,6.4,64.2,6.4L414.2,107.3z"/>
	<path class="st2_marketing-50" d="M323.1,200c-0.1,0-0.3,0-0.4-0.1c-21.7-15-13.1-40.9-13-41.1c0.1-0.2,0.2-0.4,0.5-0.4&#xA;&#9;&#9;c0.4-0.1,39.8-10.5,63.1-21c26.8-12.1,40.2-30.3,40.4-30.5c0.1-0.2,0.4-0.3,0.6-0.3c0.3,0,0.5,0.2,0.5,0.5l26.3,85.8&#xA;&#9;&#9;c0.1,0.4-0.1,0.7-0.4,0.8c-0.1,0-0.2,0-0.4,0c-0.4-0.1-42.9-10-64-6.4c-16.5,2.8-52.8,12.6-53.2,12.7L323.1,200z M310.9,159.5&#xA;&#9;&#9;c-0.9,3-6.9,25.5,12.3,39.1c3.6-1,37.3-10,53-12.7c19.4-3.3,56.4,4.6,63.3,6.2l-25.6-83.4c-3.3,4.1-16.7,19.3-40.1,29.9&#xA;&#9;&#9;C351.5,148.6,314.9,158.5,310.9,159.5L310.9,159.5z"/>
	<path class="st2_marketing-50" d="M443,192.8c-7.4,2.2-17.1-7.2-24.4-22.4c-2.5-5.2-4.5-10.6-6.1-16.1c-1.6-5.4-2.7-10.9-3.5-16.4&#xA;&#9;&#9;c-2.1-17,0.9-30.3,8.4-32.5c9.8-2.8,23.5,14.4,30.5,38.5S452.8,189.9,443,192.8z"/>
	<path class="st2_marketing-50" d="M440.8,193.7c-7.2,0-15.9-8.7-22.8-23.1c-2.5-5.2-4.6-10.6-6.2-16.2c-1.6-5.4-2.8-10.9-3.5-16.5&#xA;&#9;&#9;c-2.2-17.9,1.2-30.9,8.9-33.2c10.3-3,24.1,14.1,31.3,38.9c7.1,24.4,4.7,46.7-5.4,49.7l0,0C442.4,193.6,441.6,193.7,440.8,193.7z&#xA;&#9;&#9; M443,192.7L443,192.7z M419.7,105.7c-0.7,0-1.4,0.1-2.1,0.3c-6.9,2-10.1,14.8-8,31.8c0.7,5.5,1.9,11,3.4,16.3&#xA;&#9;&#9;c1.6,5.5,3.6,10.8,6.1,16c7.3,15.2,16.8,24.1,23.6,22.1l0,0c9.4-2.8,11.5-24.3,4.5-48.1C440.9,122,428.9,105.7,419.7,105.7&#xA;&#9;&#9;L419.7,105.7z"/>
	<path class="st1_marketing-50" d="M310.3,159c0,0-8.8,25.5,12.7,40.4c0,0,24.6-6.6,42.6-10.6c-3.7-3.8-8.2-10.5-10.5-22.4&#xA;&#9;&#9;c-1.4-6.8-1.9-13.8-1.3-20.7C332.7,153.1,310.3,159,310.3,159z"/>
	<path class="st2_marketing-50" d="M323.1,200c-0.1,0-0.3,0-0.4-0.1c-21.7-15-13.1-40.9-13-41.1c0.1-0.2,0.2-0.4,0.5-0.4&#xA;&#9;&#9;c0.2-0.1,22.6-6,43.5-13.3c0.2-0.1,0.5,0,0.6,0.1c0.2,0.1,0.3,0.4,0.3,0.6c-0.5,6.9-0.1,13.8,1.3,20.5c2.3,11.9,6.9,18.6,10.3,22&#xA;&#9;&#9;c0.2,0.2,0.2,0.4,0.2,0.7c-0.1,0.2-0.3,0.4-0.5,0.5c-17.8,3.9-42.4,10.5-42.6,10.6L323.1,200z M310.9,159.5&#xA;&#9;&#9;c-0.9,3-6.9,25.5,12.3,39.1c2.8-0.8,24.6-6.6,41.2-10.3c-3.5-3.8-7.7-10.6-9.8-21.9c-1.3-6.5-1.8-13.2-1.4-19.9&#xA;&#9;&#9;C333.9,153.3,313.8,158.8,310.9,159.5L310.9,159.5z"/>
	<path class="st1_marketing-50" d="M431.6,165.3l-13,5c-2.5-5.2-4.5-10.6-6.1-16.1c-1.6-5.4-2.8-10.8-3.5-16.4l14.1-1.9L431.6,165.3z"/>
	<path class="st2_marketing-50" d="M418.6,171c-0.3,0-0.5-0.2-0.6-0.4c-2.5-5.2-4.5-10.6-6.2-16.2c-1.6-5.4-2.8-10.9-3.5-16.5&#xA;&#9;&#9;c0-0.4,0.2-0.7,0.6-0.8l14.1-1.9c0.3,0,0.6,0.2,0.7,0.5l8.5,29.4c0.1,0.3-0.1,0.7-0.4,0.8l-13,5C418.8,171,418.7,171,418.6,171z&#xA;&#9;&#9; M409.8,138.4c0.7,5.3,1.8,10.5,3.4,15.7c1.5,5.3,3.5,10.4,5.8,15.4l11.9-4.6l-8.2-28.3L409.8,138.4z"/>
	
		<ellipse transform="matrix(0.9603 -0.2788 0.2788 0.9603 -25.0566 125.1311)" class="st1_marketing-50" cx="427.4" cy="150.6" rx="4.5" ry="15.3"/>
	<path class="st2_marketing-50" d="M431.2,166.1c-1.4,0-2.9-1.3-4.5-3.8c-1.9-3.2-3.4-6.6-4.4-10.2c-2.2-7.4-2.7-15.9,0.5-16.8&#xA;&#9;&#9;c1.5-0.4,3.2,0.9,5,3.7c1.9,3.2,3.4,6.6,4.4,10.2c2.2,7.4,2.7,15.9-0.5,16.8C431.6,166,431.4,166,431.2,166.1z M423.5,136.5&#xA;&#9;&#9;c-0.1,0-0.1,0-0.2,0c-1.5,0.4-2.1,6.4,0.4,15.1c1,3.5,2.4,6.8,4.2,9.9c1.6,2.6,2.9,3.3,3.5,3.1c1.5-0.4,2.1-6.4-0.4-15.1l0,0&#xA;&#9;&#9;c-0.9-3.5-2.4-6.8-4.2-9.9C425.3,137.3,424.1,136.5,423.5,136.5z"/>
	<path class="st1_marketing-50" d="M351.6,202.6c-1.5,0-3,0.6-4.2,1.5c-1.1,1-1.3,3.2,0,3.9c0.4,0.2,0.9,0.3,1.4,0.4c2,0.2,4,0.1,6-0.3&#xA;&#9;&#9;c-1.7,0.8-3.2,2-4.3,3.5c-0.3,0.3-0.4,0.7-0.4,1.1c0.1,0.7,1,1,1.7,1c1.8,0.1,3.6-0.3,5.3-1c-1.1,0.2-2.2,0.7-3.1,1.5&#xA;&#9;&#9;c-2.4,2.2-0.2,3.9,1.9,3.7c3.5-0.4,10.6,3.5,10.6,3.5s1.8-3.8,1.7-5.7c-0.3-2-0.7-4-1.4-5.9c-1.1-3.8-2.5-8.1-5.1-11&#xA;&#9;&#9;c-3.9-4.4-16.3-4.3-16.4,3.2C347.3,202.6,349.5,202.8,351.6,202.6z"/>
	<path class="st2_marketing-50" d="M366.4,222c-0.1,0-0.2,0-0.3-0.1c-0.1,0-6.9-3.7-10.2-3.4c-1.4,0.2-2.8-0.4-3.5-1.6c-0.4-0.9-0.2-1.9,0.5-2.6&#xA;&#9;&#9;h-1.2c-1.3-0.1-2.2-0.7-2.4-1.6c0-0.6,0.2-1.1,0.5-1.5c0.6-0.8,1.2-1.5,1.9-2.1c-1,0.1-2.1,0-3.1-0.1c-0.6,0-1.1-0.2-1.6-0.4&#xA;&#9;&#9;c-0.7-0.4-1.2-1.2-1.2-2c-0.1-1.1,0.3-2.2,1.1-3c0.2-0.2,0.4-0.3,0.6-0.5c-0.8-0.1-1.7-0.3-2.5-0.6c-0.3-0.1-0.4-0.4-0.4-0.6&#xA;&#9;&#9;c0-2.8,1.9-5.3,4.5-6.1c4.3-1.6,10.4-0.5,13,2.4c2.7,3.1,4.1,7.4,5.3,11.3l0.2,0.8c0.6,1.7,1,3.5,1.2,5.2c0.1,2-1.6,5.6-1.8,6&#xA;&#9;&#9;c-0.1,0.2-0.2,0.3-0.4,0.4C366.6,222,366.5,222,366.4,222z M356.4,217.1c3.1,0,8,2.4,9.8,3.2c0.7-1.5,1.2-3.1,1.4-4.7&#xA;&#9;&#9;c-0.2-1.7-0.6-3.3-1.1-4.9l-0.2-0.8c-1.1-3.7-2.4-7.9-5-10.8c-2.2-2.5-7.7-3.5-11.5-2.1c-2,0.6-3.4,2.3-3.6,4.4&#xA;&#9;&#9;c1.8,0.5,3.7,0.7,5.6,0.5c0.4,0,0.7,0.2,0.7,0.6c0,0.4-0.2,0.7-0.6,0.7c-1.4,0-2.7,0.5-3.9,1.3c-0.5,0.5-0.7,1.2-0.7,1.9&#xA;&#9;&#9;c0,0.4,0.2,0.8,0.6,1c0.3,0.2,0.7,0.3,1.1,0.3c1.9,0.2,3.9,0.1,5.8-0.3c0.3-0.1,0.7,0.1,0.8,0.4c0.1,0.3-0.1,0.7-0.4,0.8&#xA;&#9;&#9;c-1.6,0.8-3,1.9-4,3.3c-0.1,0.1-0.3,0.4-0.3,0.6s0.5,0.4,1.1,0.4c1.2,0,2.3-0.1,3.4-0.4c0.5-0.2,1.1-0.4,1.7-0.6&#xA;&#9;&#9;c0.4-0.1,0.7,0.1,0.8,0.5c0.1,0.3-0.1,0.7-0.4,0.8c-0.5,0.2-1.1,0.4-1.7,0.6c-0.4,0.2-0.9,0.4-1.2,0.8c-0.4,0.4-1,1.1-0.7,1.7&#xA;&#9;&#9;c0.5,0.7,1.3,1,2.1,0.9C356,217.2,356.2,217.2,356.4,217.1z"/>
	<polygon class="st2_marketing-50" points="272.4,193.6 248,254.4 240.5,184.6 &#9;"/>
	<path class="st2_marketing-50" d="M248,255L248,255c-0.4,0-0.6-0.3-0.6-0.6l-7.4-69.8c0-0.2,0.1-0.4,0.2-0.6c0.2-0.1,0.4-0.2,0.6-0.1l31.9,8.9&#xA;&#9;&#9;c0.2,0.1,0.3,0.2,0.4,0.3c0.1,0.2,0.1,0.4,0,0.5l-24.5,60.8C248.5,254.8,248.3,255,248,255z M241.3,185.5l7.1,66.2l23.2-57.7&#xA;&#9;&#9;L241.3,185.5z"/>
	<path class="st1_marketing-50" d="M246.2,112.1c3.1-0.2,6.4,1.1,7.7,3.9c0-2.5,1.8-4.8,4-6c2.3-1.1,4.8-1.7,7.4-1.7c3.5-0.4,7.1-0.2,10.6,0.7&#xA;&#9;&#9;c8.8,2.6,14.2,11.6,16.9,20.4c1.4,4.7,2.5,11.2-0.4,15.6c-2.7,4.1-10.4,6.9-14.8,8.8c-6.3,2.8-13.1,4.7-19.9,4.3&#xA;&#9;&#9;c-18.1-1.2-27.4-19.8-21.7-36.1c1.3-3.8,3.8-7.5,7.5-9.2C244.3,112.5,245.2,112.2,246.2,112.1z"/>
	<path class="st2_marketing-50" d="M259.7,158.8c-0.7,0-1.4,0-2-0.1c-7.9-0.4-15-4.6-19.4-11.2c-4.9-7.7-6-17.2-2.9-25.8c1.6-4.7,4.4-8,7.8-9.5&#xA;&#9;&#9;c0.9-0.4,2-0.7,3-0.8l0,0c2.7-0.3,5.5,0.7,7.4,2.8c0.7-2.1,2.2-3.8,4.1-4.8c2.4-1.1,5-1.7,7.6-1.8c3.6-0.4,7.3-0.2,10.8,0.7&#xA;&#9;&#9;c7.7,2.3,14,9.9,17.3,20.9c1.4,4.8,2.5,11.6-0.5,16.1c-2.4,3.7-8.6,6.3-13.1,8.2l-2,0.8C271.1,157.4,265.1,158.8,259.7,158.8z&#xA;&#9;&#9; M246.3,112.8c-0.9,0.1-1.8,0.3-2.6,0.6c-4.2,1.8-6.2,6.3-7.1,8.8c-2.9,8.2-1.9,17.3,2.8,24.6c4.1,6.3,10.9,10.2,18.4,10.6&#xA;&#9;&#9;c5.8,0.4,12.2-1,19.6-4.2c0.6-0.3,1.3-0.6,2-0.9c4.3-1.8,10.3-4.4,12.5-7.7c2.8-4.2,1.7-10.5,0.3-15c-1.5-5-6.1-16.9-16.4-20&#xA;&#9;&#9;c-3.4-0.9-6.9-1.1-10.3-0.7c-2.5,0-4.9,0.6-7.1,1.6c-2.1,1-3.5,3.1-3.7,5.5c0,0.3-0.2,0.6-0.5,0.6c-0.3,0.1-0.6-0.1-0.7-0.3&#xA;&#9;&#9;C252.1,113.6,248.9,112.6,246.3,112.8L246.3,112.8z"/>
	<path class="st1_marketing-50" d="M271.6,174.4l0.8,19.2c0,0-7.7,10.8-19.6,5.8s-12.4-14.8-12.4-14.8l3.8-36.5c0,0,9.9-3.4,10.5-23.6&#xA;&#9;&#9;c9.4,6,20.2,9.4,31.3,9.7c0,0,2,22.4-1,31.7S271.6,174.4,271.6,174.4z"/>
	<path class="st2_marketing-50" d="M259,201.4c-2.2,0-4.4-0.5-6.4-1.4c-12.1-5.1-12.7-14.9-12.7-15.3l3.8-36.6c0-0.3,0.2-0.5,0.4-0.6&#xA;&#9;&#9;c0.1,0,9.5-3.5,10.1-23c0-0.4,0.3-0.6,0.7-0.6c0.1,0,0.2,0,0.3,0.1c9.3,5.9,19.9,9.2,30.9,9.6c0.3,0,0.6,0.3,0.6,0.6&#xA;&#9;&#9;c0.1,0.9,2,22.7-1.1,32c-2.7,8.2-10.9,8.9-13.4,8.9l0.8,18.5c0,0.1,0,0.3-0.1,0.4C272.9,194,267.5,201.4,259,201.4z M244.9,148.6&#xA;&#9;&#9;l-3.8,36.2c0,0.3,0.7,9.3,12,14.1c10.5,4.5,17.6-4,18.6-5.4l-0.8-18.9c0-0.2,0.1-0.4,0.2-0.5c0.1-0.1,0.3-0.2,0.5-0.2&#xA;&#9;&#9;c0.4,0,10,0.7,12.8-8c2.7-8.2,1.3-27.4,1-30.9c-10.6-0.5-21-3.7-30.1-9.2C254.6,143.1,246.8,147.7,244.9,148.6L244.9,148.6z"/>
	<path class="st1_marketing-50" d="M249.5,157.7c-2.6,0.7-5.3,0.3-7.6-1.1c-3.3-2-4.8-5.5-4.9-9.2c-0.1-1.4,0.2-2.7,0.7-4&#xA;&#9;&#9;c0.5-1.3,1.6-2.2,2.9-2.7c1.6-0.4,3.2,0.2,4.7,0.8c2.3,0.9,2.4,2.1,3.8,3.8c-0.1-0.1-0.3-0.6-0.4-0.8"/>
	<path class="st2_marketing-50" d="M247,158.7c-1.9,0-3.8-0.5-5.4-1.5c-3.2-1.9-5.1-5.5-5.2-9.8c-0.1-1.5,0.2-2.9,0.7-4.3c0.6-1.4,1.8-2.5,3.3-3&#xA;&#9;&#9;c1.9-0.5,3.8,0.2,5.1,0.8c1.3,0.5,2.4,1.5,3.1,2.7l0.2,0.4c0.1,0,0.2,0.1,0.2,0.1c0.2,0.2,0.3,0.4,0.4,0.6l0.1,0.2l0,0&#xA;&#9;&#9;c0.2,0.3,0.2,0.7-0.1,0.9s-0.7,0.2-0.9-0.1l0,0c0,0-0.1-0.1-0.1-0.1c-0.4-0.4-0.7-0.9-1-1.3c-0.5-1-1.4-1.8-2.5-2.2&#xA;&#9;&#9;c-1.6-0.6-3-1.1-4.3-0.8c-1.1,0.4-2,1.2-2.5,2.3c-0.5,1.2-0.7,2.4-0.6,3.7c-0.1,3.5,1.6,6.8,4.6,8.7c2.1,1.3,4.7,1.6,7.1,1&#xA;&#9;&#9;c0.3-0.1,0.7,0.1,0.8,0.5c0.1,0.3-0.1,0.7-0.4,0.8c0,0,0,0,0,0C248.7,158.6,247.9,158.7,247,158.7z"/>
	<path class="st2_marketing-50" d="M272,184.5c-4.4,0.1-8.7-1.9-11.3-5.5c-4.6-6.1-3.4-10.4-3.4-10.4s5.9,6.2,14.3,5.9L272,184.5z"/>
	<path class="st2_marketing-50" d="M271.5,185.1c-4.5,0-8.6-2.2-11.3-5.8c-4.7-6.3-3.6-10.8-3.5-11c0.1-0.2,0.2-0.4,0.5-0.5&#xA;&#9;&#9;c0.2-0.1,0.5,0,0.6,0.2c0.1,0.1,5.9,5.9,13.8,5.7c0.3,0,0.6,0.2,0.7,0.5c0,0,0,0.1,0,0.1l0.4,10.1c0,0.3-0.2,0.6-0.6,0.7&#xA;&#9;&#9;C272,185.1,271.8,185.1,271.5,185.1z M257.9,169.9c0,1.6,0.5,4.8,3.4,8.7c2.4,3.2,6.1,5.2,10.1,5.3l-0.4-8.8&#xA;&#9;&#9;C266.2,174.9,261.5,173.1,257.9,169.9z"/>
	<path class="st1_marketing-50" d="M270.1,144c0,0,5.2,10.5,3.5,12s-5.9-0.2-5.9-0.2"/>
	<path class="st2_marketing-50" d="M271.4,157.2c-1.4-0.1-2.7-0.3-4-0.9c-0.3-0.1-0.5-0.5-0.4-0.8c0.1-0.3,0.5-0.5,0.8-0.4&#xA;&#9;&#9;c1.1,0.4,4.1,1.3,5.3,0.3c0.7-0.6-1-5.9-3.6-11.2c-0.2-0.3,0-0.7,0.3-0.9c0.3-0.2,0.7,0,0.9,0.3c0,0,0,0,0,0&#xA;&#9;&#9;c1.6,3.3,5.3,11.1,3.3,12.8C273.3,157,272.3,157.3,271.4,157.2z"/>
	
		<ellipse transform="matrix(0.2118 -0.9773 0.9773 0.2118 67.7441 368.5656)" class="st2_marketing-50" cx="262.4" cy="142.3" rx="2.3" ry="1.6"/>
	
		<ellipse transform="matrix(0.9963 -8.559082e-02 8.559082e-02 0.9963 -11.3321 24.283)" class="st2_marketing-50" cx="277.5" cy="144.3" rx="1.6" ry="2.3"/>
	<path class="st2_marketing-50" d="M270.7,170.5c-0.4,0-0.9,0-1.3-0.1c-2.8-0.6-5.1-2.4-6.4-4.9c-1-2-1.6-4.3-1.6-6.5l0,0c0-0.2,0.1-0.4,0.2-0.5&#xA;&#9;&#9;c0.3-0.2,0.4-0.4,15.1,1.3c0.3,0,0.6,0.3,0.6,0.6c0,0.2,0.3,5.9-2.9,8.8C273.4,170.1,272,170.6,270.7,170.5z M262.7,159.6&#xA;&#9;&#9;c0.1,1.8,0.5,3.6,1.4,5.3c1.1,2.2,3.1,3.7,5.5,4.2c1.3,0.3,2.8,0,3.9-0.8c2.3-2,2.5-5.9,2.5-7.3&#xA;&#9;&#9;C271.4,160.5,264.8,159.8,262.7,159.6L262.7,159.6z"/>
	<path class="st2_marketing-50" d="M263.5,165.2c2.6,4.9,8.1,5.6,10.4,3.6c-0.8-1.9-2-3.8-4-4.4C267.7,163.9,265.5,164.2,263.5,165.2z"/>
	<path class="st2_marketing-50" d="M270.7,170.5c-0.4,0-0.9,0-1.3-0.1c-2.8-0.6-5.1-2.4-6.4-4.9c-0.1-0.2-0.1-0.3,0-0.5c0.1-0.2,0.2-0.3,0.3-0.4&#xA;&#9;&#9;c2.1-1.1,4.5-1.4,6.9-0.8c1.9,0.5,3.4,2.1,4.4,4.8c0.1,0.3,0,0.5-0.2,0.7C273.3,170.1,272,170.6,270.7,170.5z M264.5,165.5&#xA;&#9;&#9;c1.1,1.9,3,3.2,5.1,3.6c1.2,0.3,2.5,0.1,3.5-0.5c-0.9-2-2-3.2-3.4-3.6C268,164.6,266.1,164.8,264.5,165.5z"/>
	<path class="st1_marketing-50" d="M170.8,252.9c0,0-14.4,6.4-27.3-2.9s-45.6-83.3-45.6-83.3l14.1-7.7l39.6,56.4L170.8,252.9z"/>
	<path class="st2_marketing-50" d="M159.4,255.6c-5.9,0.1-11.6-1.7-16.3-5.1c-12.9-9.3-44.5-80.5-45.8-83.6c-0.1-0.3,0-0.7,0.3-0.9l14.1-7.7&#xA;&#9;&#9;c0.3-0.2,0.7-0.1,0.9,0.2l39.6,56.4l19.3,37.6c0.2,0.3,0,0.7-0.3,0.9c0,0,0,0,0,0C167.3,254.9,163.4,255.7,159.4,255.6z&#xA;&#9;&#9; M98.7,166.9c3.1,6.9,33.1,73.8,45.2,82.5c10.9,7.8,23.1,4.2,26,3.1L151,215.6l-39.2-55.8L98.7,166.9z"/>
	<path class="st1_marketing-50" d="M115.9,166.3c1.4-8.5,2-17,1.7-25.6c-0.1-1.8-0.9-4.1-2.6-3.8c-0.9,0.2-1.4,1.1-1.8,1.9&#xA;&#9;&#9;c-1.8,4-2.7,8.3-2.7,12.7c-1.5-4.2-3.1-8.4-4.7-12.6c-0.5-1.3-3.5-11.2-5-6.8c-0.7,2,0.2,5.1,0.5,7.2c0.3,2.8,0.8,5.5,1.2,8.3&#xA;&#9;&#9;c-0.3-1.9-3.3-16.3-5.9-14.3c-2.2,1.7-0.3,5.5,0.1,7.6c0.6,3,0.8,6.7,1.9,9.6c-1.5-3.5-3.1-6.9-4.8-10.3c-0.4-0.9-1.6-4-2.5-4.2&#xA;&#9;&#9;c-1.1-0.3-2.1,1.2-2.2,2.1c-0.2,2,1.2,5.3,1.7,7.3c0.7,2.7,1.6,5.2,2.5,7.8c-0.8-2.1-2.6-4-3.7-5.9c-0.9-1.6-1.5-4-3.3-4.9&#xA;&#9;&#9;c-1.1-0.6-2.8-0.2-3.1,1c-0.1,0.6,0,1.2,0.3,1.8c4.8,12.7,11.9,24.5,20.8,34.9"/>
	<path class="st2_marketing-50" d="M104.4,180.8c-0.2,0-0.4-0.1-0.5-0.2c-9-10.4-16.1-22.2-20.9-35.1c-0.3-0.7-0.4-1.4-0.3-2.2&#xA;&#9;&#9;c0.2-0.7,0.7-1.3,1.3-1.5c0.9-0.4,1.9-0.4,2.7,0.1c1.5,0.8,2.2,2.4,2.9,3.9c0.2,0.4,0.4,0.9,0.6,1.3s0.3,0.6,0.5,0.8&#xA;&#9;&#9;c-0.2-0.7-0.4-1.5-0.6-2.2c-0.1-0.6-0.3-1.2-0.6-1.9c-0.6-1.9-1.3-4.1-1.1-5.6c0.2-1,0.7-1.8,1.5-2.4c0.5-0.3,1.1-0.4,1.6-0.3&#xA;&#9;&#9;c0.9,0.3,1.7,1.8,2.5,3.7c0.2,0.4,0.3,0.7,0.4,0.9c0.8,1.4,1.5,2.9,2.2,4.3c1.1,2.2,0-0.1,0-0.1c-0.2-1.1-0.3-2.1-0.5-3.1&#xA;&#9;&#9;c-0.1-0.4-0.2-0.9-0.4-1.5c-0.7-2.2-1.6-5.2,0.6-6.8c0.4-0.3,1-0.4,1.5-0.2c0.8,0.3,1.6,1.6,2.3,3.2c-0.2-1.3-0.2-2.6,0.1-3.9&#xA;&#9;&#9;c0.4-1,0.9-1.5,1.6-1.5l0,0c1.3,0,2.5,2.1,4.4,7.6c0.1,0.4,0.2,0.6,0.3,0.8c1.2,3.1,2.4,6.3,3.6,9.5c0.3-3.3,1.2-6.6,2.6-9.6&#xA;&#9;&#9;c0.3-1.1,1.2-2,2.3-2.3c0.6-0.1,1.3,0,1.8,0.4c1.1,1.1,1.6,2.5,1.6,4c0.3,8.6-0.3,17.2-1.7,25.7c0,0.4-0.4,0.6-0.7,0.6&#xA;&#9;&#9;c-0.4,0-0.6-0.4-0.6-0.7c0,0,0,0,0-0.1c1.4-8.4,2-16.9,1.7-25.5c0-1.1-0.4-2.1-1.1-2.9c-0.2-0.2-0.5-0.2-0.7-0.2&#xA;&#9;&#9;c-0.6,0.1-1,0.9-1.3,1.6c-1.7,3.9-2.6,8.1-2.6,12.4c0,0.3-0.2,0.6-0.6,0.7c-0.3,0.1-0.6-0.1-0.8-0.4c-1.5-4.2-3.1-8.4-4.7-12.5&#xA;&#9;&#9;l-0.3-0.8c-1.9-5.5-2.8-6.5-3.2-6.7c-0.1,0.2-0.2,0.4-0.3,0.6c-0.5,1.3-0.1,3.3,0.2,5.1c0.1,0.6,0.2,1.2,0.3,1.8&#xA;&#9;&#9;c0.3,2.7,0.7,5.4,1.2,8.1c0,0,0,0.1,0,0.1l0,0c0,0.4-0.2,0.7-0.6,0.8c-0.4,0.1-0.7-0.2-0.8-0.6c0-0.3-0.1-0.6-0.2-0.9&#xA;&#9;&#9;c-0.8-4.2-2.9-12.3-4.5-13c0,0-0.1,0-0.2,0.1c-1.4,1-0.7,3.4-0.1,5.3c0.2,0.6,0.3,1.1,0.4,1.6c0.2,1,0.3,2.1,0.5,3.2&#xA;&#9;&#9;c0.2,2.1,0.7,4.2,1.4,6.3c0.1,0.3,0,0.7-0.4,0.9c-0.3,0.1-0.7,0-0.9-0.4c-1.4-3.5-3.1-6.9-4.8-10.2c-0.1-0.2-0.3-0.6-0.4-1&#xA;&#9;&#9;c-0.3-0.8-1.2-2.8-1.7-2.9c-0.2,0-0.3,0-0.5,0.1c-0.5,0.4-0.8,0.9-0.9,1.4c-0.2,1.3,0.5,3.4,1.1,5.1c0.2,0.7,0.5,1.4,0.6,2&#xA;&#9;&#9;c0.7,2.7,1.7,5.4,2.5,7.8l0,0c0.1,0.3-0.1,0.7-0.4,0.9c0,0,0,0,0,0c-0.4,0.1-0.7-0.1-0.9-0.4l0,0c-0.5-1.2-1.2-2.4-2-3.5&#xA;&#9;&#9;c-0.6-0.7-1.1-1.5-1.5-2.3c-0.2-0.4-0.4-0.9-0.7-1.4c-0.6-1.3-1.2-2.6-2.3-3.2c-0.5-0.2-1.1-0.2-1.6,0c-0.3,0.1-0.5,0.3-0.6,0.6&#xA;&#9;&#9;c0,0.5,0,0.9,0.3,1.4c4.8,12.7,11.8,24.4,20.7,34.7c0.2,0.3,0.2,0.7-0.1,0.9C104.8,180.8,104.6,180.8,104.4,180.8z"/>
	<path class="st2_marketing-50" d="M103.9,167.3c-0.3,0-0.6-0.2-0.7-0.5c-2.9-10.2,6.8-15.8,6.9-15.8c0.3-0.2,0.7-0.1,0.9,0.3&#xA;&#9;&#9;c0.2,0.3,0.1,0.7-0.3,0.9c-0.4,0.2-8.9,5.1-6.3,14.3c0.1,0.4-0.1,0.7-0.5,0.8c0,0,0,0,0,0C104,167.3,104,167.3,103.9,167.3z"/>
	<polygon class="st1_marketing-50" points="187.5,293.3 182,309.5 289.7,309.5 289.7,294.8 &#9;"/>
	<path class="st2_marketing-50" d="M289.7,310.2H182c-0.2,0-0.4-0.1-0.5-0.3c-0.1-0.2-0.2-0.4-0.1-0.6l5.5-16.2c0.1-0.3,0.4-0.5,0.6-0.5&#xA;&#9;&#9;l102.2,1.5c0.4,0,0.7,0.3,0.7,0.7v14.8C290.4,309.9,290.1,310.2,289.7,310.2C289.7,310.2,289.7,310.2,289.7,310.2z M182.9,308.8&#xA;&#9;&#9;H289v-13.4L188,294L182.9,308.8z"/>
	<path class="st2_marketing-50" d="M291.6,274.6L291.6,274.6c-0.4,0-0.7-0.3-0.7-0.7c0,0,0,0,0,0l6.1-71c0-0.4,0.3-0.6,0.7-0.6c0,0,0,0,0,0&#xA;&#9;&#9;c0.4,0,0.6,0.4,0.6,0.7l-6.1,71C292.2,274.4,291.9,274.6,291.6,274.6z"/>
	<path class="st2_marketing-50" d="M178.6,247.1c-0.2,0-0.4-0.1-0.5-0.2c-0.2-0.3-0.2-0.7,0.1-0.9l30.9-25.2c0.3-0.2,0.7-0.2,0.9,0.1&#xA;&#9;&#9;c0.2,0.3,0.2,0.7-0.1,0.9L179,247C178.9,247.1,178.7,247.2,178.6,247.1z"/>
</g>
<g id="icons_marketing-50">
	<path class="st0_marketing-50" d="M79.8,258.7h2.3c0.1,0,0.2,0.1,0.2,0.1c3.4,0.2,6.8,1.3,9.6,3.2c6.7,4.6,9.7,11,9,19&#xA;&#9;&#9;c-0.4,4.5-2.3,8.7-5.5,11.8c-4.3,4.6-10.5,6.9-16.7,6.2c-3.2-0.3-6.3-1.4-9-3.2c-4.8-3.2-8-8.2-8.8-13.9c-0.1-0.6-0.2-1.2-0.2-1.7&#xA;&#9;&#9;v-2.3c0-0.1,0-0.3,0.1-0.4c0.1-0.9,0.2-1.7,0.4-2.6c1.7-8.3,8.5-14.6,16.8-15.9L79.8,258.7z M95.7,290.2c2.3-3,3.6-6.6,3.8-10.4h-8&#xA;&#9;&#9;c-0.1,1.4-0.2,2.9-0.4,4.2s-0.5,2.8-0.7,4.1L95.7,290.2z M62.3,279.7c0.2,3.8,1.5,7.4,3.8,10.4l5.4-2.1c-0.7-2.7-1.1-5.5-1.1-8.3&#xA;&#9;&#9;H62.3z M99.4,278.1c0.2-3-2-8.9-3.8-10.4l-5.4,2.1c0.7,2.7,1.1,5.5,1.1,8.3H99.4z M71.5,269.8l-5.4-2.1c-1.9,2.1-4.1,8-3.7,10.4h8&#xA;&#9;&#9;C70.5,275.3,70.8,272.5,71.5,269.8z M81.7,287c1.2,0.1,2.3,0.1,3.5,0.3s2.3,0.3,3.5,0.5l0.1-0.3c0.6-2.4,0.9-4.9,1-7.3&#xA;&#9;&#9;c0-0.3-0.1-0.4-0.4-0.4h-7.3h-0.4V287z M72,279.7c0,2.7,0.4,5.4,1.1,8l7-0.8v-7.2L72,279.7z M89.7,278.1c0-2.7-0.4-5.3-1.1-7.9&#xA;&#9;&#9;l-7,0.8v7.1H89.7z M73.1,270.1c-0.7,2.6-1,5.3-1.1,7.9h8v-7.1L73.1,270.1z M88.2,268.5c-0.5-1.8-1.4-3.4-2.4-4.9&#xA;&#9;&#9;c-0.7-1-1.6-1.9-2.7-2.5c-0.4-0.2-0.9-0.4-1.4-0.6v8.9C83.9,269.2,86.1,268.9,88.2,268.5L88.2,268.5z M81.7,288.6v8.8&#xA;&#9;&#9;c1-0.2,1.9-0.7,2.6-1.4c1.5-1.5,2.7-3.3,3.4-5.2c0.2-0.5,0.3-0.9,0.5-1.4C86.1,288.9,83.9,288.7,81.7,288.6z M80.1,297.4v-8.8&#xA;&#9;&#9;c-2.2,0-4.4,0.3-6.5,0.8c0.4,0.9,0.7,1.8,1.1,2.7c0.7,1.6,1.7,3,3,4.1C78.3,296.8,79.2,297.2,80.1,297.4z M73.5,268.5&#xA;&#9;&#9;c2.2,0.5,4.4,0.7,6.6,0.8v-8.8c-0.7,0.1-1.3,0.4-1.8,0.8c-1.3,0.9-2.4,2.2-3.1,3.7C74.5,266,74.1,267.2,73.5,268.5z M94.5,291.5&#xA;&#9;&#9;c-1.5-0.8-3.1-1.4-4.7-1.8c-1.5,3.9-2,4.7-3.9,7.1C89.2,295.9,92.2,294,94.5,291.5L94.5,291.5z M75.9,261.1c-2,0.1-7.6,3.5-8.6,5.3&#xA;&#9;&#9;l4.6,1.7c0.6-1.3,1.1-2.6,1.7-3.8C74.2,263.2,75,262.1,75.9,261.1z M67.3,291.5c2.4,2.6,5.4,4.4,8.7,5.3c-1.8-2-3.2-4.5-4-7.1&#xA;&#9;&#9;C70.4,290.2,68.8,290.8,67.3,291.5L67.3,291.5z M86,261.1c0.9,1,1.7,2.1,2.3,3.3c0.6,1.2,1.1,2.4,1.7,3.7c1.6-0.4,3.2-1,4.7-1.8&#xA;&#9;&#9;C92.3,263.8,89.3,262,86,261.1z"/>
	<path class="st0_marketing-50" d="M389.7,302.3h-48c-0.4,0-0.6-0.3-0.6-0.6v-26.5c0-0.4,0.3-0.6,0.6-0.6h48c0.4,0,0.6,0.3,0.6,0.6v26.5&#xA;&#9;&#9;C390.3,302,390,302.3,389.7,302.3z M342.3,301H389v-25.1h-46.7L342.3,301z"/>
	<path class="st0_marketing-50" d="M365.7,292.4c-0.1,0-0.3,0-0.4-0.1l-24-16.5c-0.3-0.2-0.4-0.6-0.2-0.9c0.2-0.3,0.6-0.4,0.9-0.2l23.6,16.3&#xA;&#9;&#9;l23.6-16.2c0.3-0.2,0.7-0.1,0.9,0.2s0.1,0.7-0.2,0.9l0,0l-24,16.5C365.9,292.4,365.8,292.4,365.7,292.4z"/>
	<path class="st0_marketing-50" d="M341.7,302.3c-0.4,0-0.7-0.3-0.7-0.6c0-0.2,0.1-0.4,0.3-0.5l19.2-13.2c0.3-0.2,0.7-0.1,0.9,0.2c0,0,0,0,0,0&#xA;&#9;&#9;c0.2,0.3,0.1,0.7-0.2,0.9l-19.2,13.2C342,302.3,341.8,302.3,341.7,302.3z"/>
	<path class="st0_marketing-50" d="M389.7,302.3c-0.1,0-0.3,0-0.4-0.1L370.1,289c-0.3-0.2-0.4-0.6-0.2-0.9c0.2-0.3,0.6-0.4,0.9-0.2c0,0,0,0,0,0&#xA;&#9;&#9;l19.2,13.2c0.3,0.2,0.4,0.6,0.2,0.9C390.1,302.2,389.9,302.3,389.7,302.3z"/>
	<path class="st0_marketing-50" d="M408.4,240c-11.3,0-20.5-9.2-20.5-20.5s9.2-20.5,20.5-20.5s20.5,9.2,20.5,20.5c0,0,0,0,0,0&#xA;&#9;&#9;C428.9,230.8,419.7,240,408.4,240z M408.4,200.3c-10.6,0-19.2,8.6-19.2,19.2s8.6,19.2,19.2,19.2s19.2-8.6,19.2-19.2&#xA;&#9;&#9;C427.5,208.9,418.9,200.3,408.4,200.3L408.4,200.3z"/>
	<path class="st0_marketing-50" d="M414.1,239.2c-0.3,0-0.5-0.2-0.6-0.5l-5.8-19c-0.1-0.2,0-0.4,0.1-0.6l11.5-16.1c0.2-0.3,0.6-0.4,0.9-0.2&#xA;&#9;&#9;c0,0,0,0,0,0c0.3,0.2,0.4,0.6,0.2,0.9c0,0,0,0,0,0l-11.4,15.9l5.7,18.7c0.1,0.3-0.1,0.7-0.4,0.8&#xA;&#9;&#9;C414.2,239.2,414.2,239.2,414.1,239.2z"/>
	<path class="st0_marketing-50" d="M408.4,220.2c-0.1,0-0.2,0-0.3-0.1l-17.6-9.3c-0.3-0.2-0.4-0.6-0.3-0.9c0,0,0,0,0,0c0.2-0.3,0.5-0.4,0.9-0.3&#xA;&#9;&#9;c0,0,0,0,0,0l17.6,9.3c0.3,0.2,0.4,0.6,0.3,0.9C408.8,220,408.6,220.2,408.4,220.2L408.4,220.2z"/>
	<path class="st0_marketing-50" d="M134,294.4h-6.8c-0.4,0-0.7-0.3-0.7-0.6v-31.3c0-0.4,0.3-0.6,0.7-0.6h6.8c0.4,0,0.6,0.3,0.6,0.6v31.3&#xA;&#9;&#9;C134.7,294.1,134.4,294.4,134,294.4L134,294.4z M127.8,293.1h5.5v-30h-5.5L127.8,293.1z"/>
	<path class="st0_marketing-50" d="M148.9,294.4H142c-0.4,0-0.6-0.3-0.6-0.6v-21.7c0-0.4,0.3-0.7,0.6-0.7h6.8c0.4,0,0.7,0.3,0.6,0.7v21.7&#xA;&#9;&#9;C149.5,294.1,149.2,294.4,148.9,294.4L148.9,294.4z M142.7,293.1h5.5v-20.4h-5.5V293.1z"/>
	<path class="st0_marketing-50" d="M163.8,294.4H157c-0.4,0-0.6-0.3-0.6-0.6v-13.9c0-0.4,0.3-0.6,0.6-0.6h6.8c0.4,0,0.6,0.3,0.6,0.6v13.9&#xA;&#9;&#9;C164.5,294.1,164.2,294.4,163.8,294.4C163.8,294.4,163.8,294.4,163.8,294.4z M157.6,293.1h5.5v-12.6h-5.5V293.1z"/>
	<path class="st0_marketing-50" d="M169.4,294.4h-48.9c-0.4,0-0.7-0.3-0.7-0.6c0-0.4,0.3-0.7,0.7-0.7h48.9c0.4,0,0.7,0.3,0.7,0.7&#xA;&#9;&#9;C170.1,294.1,169.8,294.4,169.4,294.4z"/>
	<path class="st0_marketing-50" d="M95.8,215.5H67c-3.3,0-6-2.8-6-6.1V193c0-3.3,2.7-6,6-6.1h28.8c3.4,0,6.1,2.7,6.1,6.1v16.4&#xA;&#9;&#9;C101.9,212.7,99.2,215.5,95.8,215.5z M67,188.2c-2.6,0-4.8,2.2-4.8,4.8v16.4c0,2.6,2.1,4.8,4.8,4.8h28.8c2.6,0,4.8-2.1,4.8-4.8V193&#xA;&#9;&#9;c0-2.6-2.1-4.8-4.8-4.8L67,188.2z"/>
	<path class="st0_marketing-50" d="M74.8,210.1c-0.1,0-0.2,0-0.3-0.1c-0.2-0.1-0.3-0.3-0.3-0.6v-16.6c0-0.4,0.3-0.6,0.6-0.6c0.1,0,0.2,0,0.3,0.1&#xA;&#9;&#9;l17.1,8.3c0.3,0.2,0.4,0.6,0.3,0.9c-0.1,0.1-0.2,0.2-0.3,0.3l-17.1,8.3C75,210.1,74.9,210.1,74.8,210.1z M75.5,193.9v14.6l15-7.3&#xA;&#9;&#9;L75.5,193.9z"/>
	<path class="st0_marketing-50" d="M184.2,179.5h-41.3c-0.4,0-0.7-0.3-0.7-0.6V150c0-0.4,0.3-0.7,0.7-0.6h41.3c0.4,0,0.6,0.3,0.6,0.6v28.8&#xA;&#9;&#9;C184.8,179.2,184.5,179.5,184.2,179.5z M143.6,178.2h40v-27.5h-40V178.2z"/>
	<path class="st0_marketing-50" d="M142.9,179.5c-0.1,0-0.3,0-0.4-0.1c-0.3-0.2-0.4-0.6-0.1-0.9c0,0,0,0,0,0l16.3-21.9c0.1-0.2,0.3-0.3,0.5-0.3&#xA;&#9;&#9;c0.2,0,0.4,0.1,0.5,0.2l12.8,15.1c0.2,0.3,0.2,0.7-0.1,0.9c0,0,0,0,0,0c-0.3,0.2-0.7,0.2-0.9-0.1c0,0,0,0,0,0l-12.2-14.5&#xA;&#9;&#9;l-15.8,21.3C143.3,179.4,143.1,179.5,142.9,179.5z"/>
	<path class="st0_marketing-50" d="M168.4,168.5c-0.1,0-0.3,0-0.4-0.1c-0.3-0.2-0.4-0.6-0.2-0.9l6.6-9.5c0.1-0.2,0.3-0.3,0.5-0.3&#xA;&#9;&#9;c0.2,0,0.4,0.1,0.5,0.2l9.1,9.5c0.3,0.3,0.3,0.7,0,0.9c0,0,0,0,0,0c-0.2,0.3-0.7,0.3-0.9,0c0,0,0,0,0,0l-8.6-9l-6.1,8.9&#xA;&#9;&#9;C168.9,168.4,168.7,168.5,168.4,168.5z"/>
	<path class="st0_marketing-50" d="M169.2,159c-1.8,0-3.2-1.4-3.2-3.2c0-1.8,1.4-3.2,3.2-3.2c1.8,0,3.2,1.4,3.2,3.2l0,0&#xA;&#9;&#9;C172.4,157.6,170.9,159,169.2,159z M169.2,153.9c-1,0-1.9,0.9-1.9,1.9s0.9,1.9,1.9,1.9c1,0,1.9-0.9,1.9-1.9v0&#xA;&#9;&#9;C171.1,154.8,170.2,153.9,169.2,153.9C169.2,153.9,169.2,153.9,169.2,153.9L169.2,153.9z"/>
	<path class="st0_marketing-50" d="M394,249.6h-23.7c-0.4,0-0.6-0.3-0.6-0.7c0-0.4,0.3-0.6,0.6-0.6H394c0.4,0,0.6,0.3,0.6,0.6&#xA;&#9;&#9;C394.6,249.3,394.4,249.6,394,249.6z"/>
	<path class="st0_marketing-50" d="M394,254.7h-23.7c-0.4,0-0.6-0.3-0.6-0.6c0-0.4,0.3-0.7,0.6-0.7H394c0.4,0,0.6,0.3,0.6,0.7&#xA;&#9;&#9;C394.6,254.4,394.4,254.7,394,254.7z"/>
	<path class="st0_marketing-50" d="M386.8,259.8h-16.5c-0.4,0-0.7-0.3-0.7-0.6s0.3-0.7,0.6-0.7c0,0,0,0,0,0h16.5c0.4,0,0.6,0.3,0.6,0.7&#xA;&#9;&#9;C387.5,259.5,387.2,259.8,386.8,259.8z"/>
	<path class="st0_marketing-50" d="M107.3,229.2H67.2c-0.4,0-0.7-0.3-0.7-0.6c0-0.4,0.3-0.7,0.7-0.7h40.1c0.4,0,0.7,0.3,0.7,0.7&#xA;&#9;&#9;C108,228.9,107.7,229.2,107.3,229.2z"/>
	<path class="st0_marketing-50" d="M107.3,234.3H67.2c-0.4,0-0.7-0.3-0.7-0.7c0-0.4,0.3-0.6,0.7-0.6h40.1c0.4,0,0.7,0.3,0.7,0.6&#xA;&#9;&#9;C108,234,107.7,234.3,107.3,234.3z"/>
	<path class="st0_marketing-50" d="M95.1,239.4H67.2c-0.4,0-0.7-0.3-0.7-0.7c0-0.4,0.3-0.6,0.7-0.6h27.9c0.4,0,0.7,0.3,0.7,0.6&#xA;&#9;&#9;C95.8,239.1,95.5,239.4,95.1,239.4z"/>
	<path class="st0_marketing-50" d="M416.4,271.6h-3.1v-1.9h3.5l0.6-2.8h-3.2v-1.9h3.5l1.1-4.8h3.1l-1,4.8h3.6l1-4.8h3l-1,4.8h3.2v1.9h-3.6&#xA;&#9;&#9;l-0.6,2.8h3.2v1.9h-3.5l-1.1,4.8h-3l1-4.8h-3.6l-1,4.8h-3L416.4,271.6z M420.5,266.8l-0.6,2.8h3.6l0.6-2.8H420.5z"/>
	<path class="st0_marketing-50" d="M369.8,284.3c-0.4,0.6-1,1.1-1.7,1.4c-0.7,0.3-1.4,0.5-2.2,0.5c-0.6,0-1.3-0.1-1.9-0.4c-0.6-0.2-1.1-0.6-1.6-1&#xA;&#9;&#9;c-0.5-0.4-0.8-0.9-1-1.5c-0.3-0.6-0.4-1.2-0.4-1.9c0-0.6,0.1-1.3,0.4-1.9c0.2-0.6,0.6-1.1,1-1.5c0.4-0.4,1-0.8,1.5-1&#xA;&#9;&#9;c0.6-0.2,1.2-0.4,1.9-0.4c0.6,0,1.1,0.1,1.6,0.3c0.5,0.2,1,0.4,1.4,0.8c0.4,0.4,0.8,0.8,1,1.3c0.3,0.6,0.4,1.2,0.4,1.8&#xA;&#9;&#9;c0,0.4-0.1,0.8-0.2,1.2c-0.1,0.3-0.2,0.6-0.4,0.8c-0.1,0.2-0.3,0.4-0.5,0.6c-0.2,0.1-0.4,0.2-0.6,0.3c-0.2,0.1-0.4,0.1-0.6,0.2&#xA;&#9;&#9;c-0.2,0-0.3,0-0.5,0c-0.3,0-0.5-0.1-0.8-0.2c-0.1-0.1-0.2-0.3-0.2-0.5l0,0c-0.2,0.2-0.4,0.3-0.6,0.5c-0.3,0.2-0.7,0.2-1,0.2&#xA;&#9;&#9;c-0.3,0-0.5-0.1-0.7-0.2c-0.2-0.1-0.4-0.2-0.6-0.4c-0.2-0.2-0.3-0.4-0.4-0.7c-0.1-0.3-0.1-0.6-0.1-0.9c0-0.7,0.2-1.4,0.7-2&#xA;&#9;&#9;c0.2-0.3,0.5-0.5,0.8-0.6c0.3-0.2,0.7-0.2,1.1-0.2c0.3,0,0.6,0,0.8,0.2c0.2,0.1,0.4,0.3,0.5,0.6l0,0l0.1-0.6h1.2l-0.5,2.5&#xA;&#9;&#9;c0,0.1,0,0.2-0.1,0.4c0,0.1,0,0.2,0,0.4c0,0.1,0,0.2,0.1,0.3c0,0.1,0.1,0.1,0.3,0.1c0.1,0,0.3,0,0.4-0.1c0.1-0.1,0.3-0.2,0.3-0.3&#xA;&#9;&#9;c0.1-0.2,0.2-0.4,0.2-0.6c0.1-0.3,0.1-0.6,0.1-0.9c0-0.5-0.1-0.9-0.2-1.3c-0.2-0.4-0.4-0.7-0.7-1c-0.3-0.3-0.7-0.5-1-0.6&#xA;&#9;&#9;c-0.4-0.1-0.9-0.2-1.3-0.2c-0.5,0-1,0.1-1.4,0.3c-0.4,0.2-0.8,0.4-1.1,0.7c-0.3,0.3-0.6,0.7-0.7,1.1c-0.2,0.5-0.3,0.9-0.2,1.4&#xA;&#9;&#9;c0,0.5,0.1,1,0.3,1.5c0.2,0.4,0.4,0.8,0.8,1.1c0.3,0.3,0.7,0.5,1.2,0.7c0.5,0.2,1,0.2,1.5,0.2c0.4,0,0.9-0.1,1.3-0.2&#xA;&#9;&#9;c0.4-0.1,0.8-0.3,1.1-0.6L369.8,284.3z M365.7,280.2c-0.2,0-0.4,0-0.6,0.1c-0.2,0.1-0.3,0.2-0.4,0.3c-0.1,0.1-0.2,0.3-0.3,0.5&#xA;&#9;&#9;c-0.1,0.2-0.1,0.4-0.1,0.6c0,0.1,0,0.2,0,0.3c0,0.1,0.1,0.3,0.1,0.4c0.1,0.1,0.2,0.3,0.3,0.3c0.2,0.1,0.4,0.1,0.6,0.1&#xA;&#9;&#9;c0.2,0,0.4,0,0.6-0.1c0.2-0.1,0.3-0.2,0.4-0.4c0.1-0.1,0.2-0.3,0.2-0.5c0-0.2,0.1-0.4,0.1-0.5c0-0.3-0.1-0.6-0.2-0.8&#xA;&#9;&#9;C366.2,280.3,366,280.2,365.7,280.2z"/>
</g>
</svg>